<?xml version="1.0" standalone="no"?>
<?xml-stylesheet href="light.css" type="text/css"?>
<!DOCTYPE svg PUBLIC "-//W3C//DTD SVG 1.1//EN" "http://www.w3.org/Graphics/SVG/1.1/DTD/svg11.dtd">
<svg xmlns="http://www.w3.org/2000/svg" version="1.1" viewBox="0 0 1000 1000" style="-webkit-tap-highlight-color: rgba(0, 0, 0, 0);"><g transform="translate(500,500) scale(0.75)"><g><path class="link" d="M118.07052778889059,-434.2342115352645L112.60039975448,-344.339530895397C107.13027172006942,-254.44485025552945,96.19001565124825,-74.65548897579443,150.6139956304521,-13.851790358981354C205.03797560965597,46.95190825783171,324.82619163688486,-11.230055788277179,384.7202996504993,-40.32103781133162L444.6144076641138,-69.41201983438607"></path><path class="link" d="M118.07052778889059,-434.2342115352645L106.5873112998355,-351.6871948615251C95.10409481078045,-269.1401781877857,72.13766183267032,-104.04614484030685,78.45693417471834,-102.02375795251866C84.77620651676635,-100.00137106473046,120.38118417897253,-261.0506306366329,138.1836730100756,-341.5752604225841L155.9861618411787,-422.0998902085353"></path><path class="link" d="M118.07052778889059,-434.2342115352645L93.9648938758868,-342.6860525817861C69.85925996288303,-251.13789362830778,21.647992136875473,-68.04157572135107,-73.0120749126662,5.989949404348702C-167.67214196220786,80.02147453004848,-308.78100823528365,44.98820687449131,-379.33544137182156,27.471573046712734L-449.8898745083594,9.954939218934157"></path><path class="link" d="M155.9861618411787,-422.0998902085353L140.47111687928498,-340.61291346630804C124.95607191739124,-259.12593672408076,93.92598199360378,-96.15198323962615,105.90626060523061,-90.47559447720569C117.88653921685746,-84.79920571478522,172.87718636389857,-236.42038167439887,200.37250993741915,-312.2309696542057L227.8678335109397,-388.0415576340125"></path><path class="link" d="M155.9861618411787,-422.0998902085353L139.73805769537384,-341.00084070178156C123.48995354956895,-259.9017911950278,90.99374525795922,-97.70369218152025,97.1095503982969,-95.13072130288799C103.22535553863459,-92.55775042425573,147.95317411091972,-249.60990768049874,170.3170833970623,-328.1359863086202L192.68099268320486,-406.66206493674173"></path><path class="link" d="M192.68099268320486,-406.66206493674173L175.62622692039452,-323.1680224607249C158.57146115758417,-239.67397998470804,124.46192963196346,-72.68589503267437,160.81927267828345,-35.51515512814395C197.17661572460347,1.6555847763864715,304.0008333428642,-90.99102036658637,357.4129421519945,-137.3143229380728L410.82505096112493,-183.6376255095592"></path><path class="link" d="M192.68099268320486,-406.66206493674173L175.9308577751875,-322.3966189674435C159.18072286717006,-238.1311729981453,125.68045305113526,-69.60028105954886,164.47484293579888,-26.2583132087674C203.26923282046252,17.083654642014057,314.3582824058246,-64.76330159501946,369.90280719850557,-105.68677971353623L425.4473319911866,-146.61025783205298"></path><path class="link" d="M192.68099268320486,-406.66206493674173L176.1661198338212,-321.6013108064731C159.6512469844375,-236.5405566762046,126.62150128567015,-66.41904841566748,167.29798763940354,-16.71461527712327C207.97447399313697,32.98981786142094,322.3571923993711,-37.72282412202778,379.5485516024882,-73.07914511375213L436.7399108056053,-108.4354661054765"></path><path class="link" d="M227.8678335109397,-388.0415576340125L202.56595030712012,-311.07022400437387C177.26406710330048,-234.09889037473525,126.66030069566125,-80.15622311545796,132.227545041642,-76.54664667922394C137.79478938762279,-72.93707024298992,199.53304448722352,-219.66058462979916,230.40217203702392,-293.02234182320376L261.2712995868243,-366.3840990166084"></path><path class="link" d="M227.8678335109397,-388.0415576340125L203.21925580528463,-310.5592883594962C178.57067809962953,-233.07701908497984,129.27352268831936,-78.11248053594711,140.06721101961634,-70.4154189406914C150.86089935091334,-62.718357345435685,221.7454314248175,-202.28877270395697,257.1876974617696,-272.0739803832176L292.6299634987216,-341.8591880624782"></path><path class="link" d="M227.8678335109397,-388.0415576340125L206.4771564397312,-304.058999658107C185.08647936852267,-220.07644168220145,142.30512522610564,-52.11132573039034,179.1620186329752,7.588045475978929C216.01891203984474,67.2874166823482,332.5140529960009,18.72104314327564,390.76162347407893,-5.562143626260636L449.009193952157,-29.845330395796914"></path><path class="link" d="M227.8678335109397,-388.0415576340125L187.75009251347046,-303.22982737446677C147.63235151600114,-218.41809711492098,67.39686952106261,-48.794636595829424,-45.562748482153914,17.538112879661686C-158.52236648537044,83.8708623551528,-304.2061204968649,46.912900787043476,-377.04799750261213,28.433920002988817L-449.8898745083594,9.954939218934157"></path><path class="link" d="M261.2712995868243,-366.3840990166084L232.91011535356574,-290.87555335940397C204.5489311203072,-215.36700770219952,147.82656265379015,-64.34991638779064,162.3228648401441,-50.78518511362609C176.8191670264981,-37.22045383946155,262.53413986572303,-161.1080826055413,305.3916262853356,-223.05189698858123L348.24911270494806,-284.9957113716211"></path><path class="link" d="M261.2712995868243,-366.3840990166084L231.751383078436,-292.0602091237968C202.2314665700478,-217.73631923098523,143.19163355327126,-69.08853944536206,148.41807753858748,-65.00105428634036C153.6445215239037,-60.913569127318674,223.13724251131268,-201.38637859489845,257.88360300501716,-271.6227833286883L292.6299634987216,-341.8591880624782"></path><path class="link" d="M261.2712995868243,-366.3840990166084L217.90337753168123,-290.21110477746083C174.53545547653815,-214.03811053831328,87.79961136625205,-61.69212206001814,-17.757989022470145,-42.811802130308614C-123.31558941119236,-23.93148220059909,-247.69494607835065,-138.51683081947513,-309.8846244119298,-195.8095051289132L-372.07430274550893,-253.10217943835121"></path><path class="link"></path><path class="link" d="M292.6299634987216,-341.8591880624782L261.79480913762825,-264.6115589824214C230.95965477653488,-187.36392990236462,169.2893460543481,-32.868671742251045,195.35255112992067,19.133637868862508C221.41575620549324,71.13594747997605,335.2124750788251,20.64530854208957,392.11083451549104,-4.600010926853671L449.009193952157,-29.845330395796914"></path><path class="link" d="M292.6299634987216,-341.8591880624782L259.69564077831143,-269.92719191941774C226.76131805790115,-197.9951957763573,160.8926726170807,-54.131203490236395,170.16253081811843,-44.65395737509354C179.43238901915618,-35.176711259950686,263.8407508620521,-160.0862113157859,306.0449317835001,-222.54096134370351L348.24911270494806,-284.9957113716211"></path><path class="link" d="M292.6299634987216,-341.8591880624782L259.95117113498617,-258.3791033204605C227.2723787712507,-174.89901857844288,161.91479404377975,-7.938849094407487,173.22889509821562,93.92310581239319C184.54299615265145,195.78506071919386,272.52878298899407,232.54880104875983,316.5216764071654,250.93067121354284L360.5145698253367,269.3125413783258"></path><path class="link" d="M292.6299634987216,-341.8591880624782L259.42590804680503,-257.7372606642487C226.22185259488845,-173.6153332660192,159.81374169105524,-5.37147846956024,166.92573804004212,101.62521768693493C174.03773438902897,208.6219138434301,254.66983799083587,254.37145135996147,294.98588979173934,277.2462201182271L335.3019415926428,300.1209888764928"></path><path class="link" d="M292.6299634987216,-341.8591880624782L258.8459742854544,-257.1443524592251C225.06198507218718,-172.42951685597203,157.49400664565272,-2.999845649465859,159.96653290383446,108.74011614721807C162.4390591620162,220.480077943902,234.9520901049142,274.53033033076366,271.20860557636314,301.55545652419454L307.46512104781215,328.58058271762536"></path><path class="link" d="M292.6299634987216,-341.8591880624782L260.82170175394424,-259.7891551659588C229.01344000916683,-177.71912226943934,165.39691651961203,-13.579056476400448,183.67526252571244,77.0024836664143C201.95360853181285,167.58402380922905,302.1268240335684,184.60703830181967,352.2134317844463,193.11854554811498L402.30003953532406,201.6300527944103"></path><path class="link" d="M292.6299634987216,-341.8591880624782L260.4176526541548,-259.06485713883325C228.20534180958782,-176.2705262151883,163.78072012045402,-10.681864367898433,178.82667332823846,85.69405999192033C193.87262653602284,182.0699843517391,288.38915464072545,209.23317122408673,335.64741869307676,222.81476466026058L382.90568274542807,236.39635809643437"></path><path class="link" d="M292.6299634987216,-341.8591880624782L246.66499324166327,-256.6050190159887C200.70002298460483,-171.35084996949922,108.77008247048803,-0.8425118765201963,13.79476037834045,115.21211746605506C-81.18056171380714,231.2667468086303,-179.20126538398551,292.8676674008018,-228.2116172190747,323.66812769688755L-277.2219690541639,354.4685879929733"></path><path class="link" d="M292.6299634987216,-341.8591880624782L246.0349275751289,-257.1443524592251C199.43989165153616,-172.42951685597203,106.2498198043507,-2.99984564946584,6.233972379928427,108.74011614721813C-93.78187504449384,220.4800779439021,-200.62349804615292,274.53033033076383,-254.04430954698242,301.55545652419477L-307.465121047812,328.5805827176256"></path><path class="link" d="M292.6299634987216,-341.8591880624782L261.7581500305687,-262.9548375588242C230.88633656241572,-184.05048705517012,169.14270962610985,-26.241786047862036,194.91264184520585,39.01429495202955C220.6825740643019,104.27037595192114,333.9660654387999,76.97383694439623,390.60781112604883,63.32556744063376L447.24955681329783,49.67729793687131"></path><path class="link" d="M321.6984011838731,-314.65876545194135L284.52493130104494,-246.69349760625084C247.3514614182168,-178.72822976056037,173.00452165256047,-42.797694069179364,177.42964023940627,-37.853851722459325C181.85475882625212,-32.910009375739286,265.0519357656001,-158.95286037368018,306.6505242352741,-221.97428587265065L348.24911270494806,-284.9957113716211"></path><path class="link" d="M321.6984011838731,-314.65876545194135L286.62409966036176,-241.37786466925448C251.5497981368505,-168.0969638865677,181.4011950898279,-21.53516232119402,202.61966055120854,25.933743521496723C223.83812601258919,73.40264936418747,336.42365998237307,21.778659484195273,392.716426967265,-4.03333545580082L449.009193952157,-29.845330395796914"></path><path class="link" d="M321.6984011838731,-314.65876545194135L285.98944672505235,-237.3126344745683C250.2804922662316,-159.9665034971953,178.86258334859008,-5.274241542449242,195.0038253274951,74.71650585773106C211.14506730640014,154.70725325791136,314.8454601818517,159.9964861035259,366.6956566195775,162.64110252633319L418.5458530573033,165.28571894914046"></path><path class="link" d="M321.6984011838731,-314.65876545194135L268.550036180998,-237.3126344745683C215.401671178123,-159.9665034971953,109.10494117237288,-5.274241542449242,-14.269101201156522,74.71650585773108C-137.64314357468592,154.7072532579114,-278.0944983159946,159.99648610352597,-348.32017568664895,162.64110252633327L-418.54585305730325,165.28571894914054"></path><path class="link" d="M321.6984011838731,-314.65876545194135L286.5874405533022,-239.72114324565723C251.4764799227314,-164.7835210393732,181.25455866158964,-14.90827662680501,202.17975126649375,45.81440060466377C223.10494387139786,106.53707783613254,335.17725034234786,78.10718788650193,391.2134035778228,63.89224291168662L447.24955681329783,49.67729793687131"></path><path class="link" d="M321.6984011838731,-314.65876545194135L286.4595103057921,-238.90169394343616C251.22061942771109,-163.14462243493105,180.74283767154907,-11.630479417920716,200.64458829637212,55.647792231316636C220.54633892119514,122.926063880554,330.82762192700324,105.96846416201838,385.96826342990727,97.48966430275057L441.1089049328113,89.01086444348277"></path><path class="link" d="M321.6984011838731,-314.65876545194135L267.9153832456886,-241.37786466925448C214.13236530750407,-168.09696388656766,106.56632943113506,-21.535162321193997,-21.88493642486995,25.93374352149679C-150.33620228087497,73.40264936418758,-299.67269811651596,21.778659484195483,-374.34094603433647,-4.033335455800567L-449.009193952157,-29.845330395796616"></path><path class="link" d="M321.6984011838731,-314.65876545194135L268.27982524899045,-238.09675778079136C214.8612493141078,-161.5347501096414,108.02409744434247,-8.410734767341486,-17.51163238524772,65.30702618305433C-143.0473622148379,139.02478713345016,-287.28167000425293,133.3362936919419,-359.3988238989605,130.49204697118776L-431.515977793668,127.6478002504336"></path><path class="link" d="M348.24911270494806,-284.9957113716211L309.3211799295342,-215.2115003586741C270.3932471541204,-145.42728934572705,192.53738160329263,-5.858867319832996,209.47750857052787,43.29957444525953C226.4176355377631,92.45801621035206,338.15375502306125,51.20647771464305,394.0218147657103,30.580708466788547L449.88987450835936,9.954939218934047"></path><path class="link" d="M372.0743027455089,-253.10217943835133L326.3956149431458,-195.29856948403554C280.7169271407827,-137.4949595297198,189.3595515360565,-21.887739621088286,176.11882832825867,-36.6805743917761C162.87810512046076,-51.473409162463916,227.75403430959122,-196.66629861247108,260.19199890415643,-269.2627433374746L292.6299634987216,-341.8591880624782"></path><path class="link" d="M372.0743027455089,-253.10217943835133L327.5543472182755,-194.1139137196427C283.0343916910421,-135.1256480009341,193.9944806365754,-17.149116563516866,190.02361562981523,-22.464705219061827C186.0527506230551,-27.780293874606787,267.1509316640016,-156.38800262311395,307.70002218447485,-220.69185699736752L348.24911270494806,-284.9957113716211"></path><path class="link" d="M372.0743027455089,-253.10217943835133L313.043967522236,-194.1139137196427C254.0136322989631,-135.1256480009341,135.95296185241736,-17.149116563516856,15.899059277341186,-22.46470521906181C-104.154843297735,-27.78029387460676,-226.2019780013416,-156.38800262311392,-287.22554535314487,-220.6918569973675L-348.2491127049482,-284.99571137162104"></path><path class="link" d="M392.9875068901017,-219.22777978235848L345.91406721762695,-164.5150820982057C298.8406275451521,-109.80238441405292,204.69374820020246,-0.376989045747365,201.20821417610367,-6.022722321746173C197.72268015200484,-11.66845559774498,284.8984914487569,-132.38531751804814,328.48639709713285,-192.74374847819976L372.0743027455089,-253.10217943835133"></path><path class="link" d="M392.9875068901017,-219.22777978235848L334.52701137878176,-150.60072502555263C276.0665158674619,-81.9736702687468,159.14552484482206,55.28043924486487,64.56354410996245,160.9495625500905C-30.018436624897173,266.61868585531613,-102.26140707197658,340.7028229521557,-138.38289229551629,377.74489150057553L-174.504377519056,414.7869600489953"></path><path class="link" d="M392.9875068901017,-219.22777978235848L336.1052831802485,-150.09562316826865C279.2230594703952,-80.96346655417878,165.45861205068863,57.30084667400092,83.50280572756218,167.0107848374987C1.5469994044356952,276.72072300099643,-48.60016582211071,357.87628609981226,-73.67374843538391,398.4540676492202L-98.74733104865712,439.0318491986281"></path><path class="link" d="M392.9875068901017,-219.22777978235848L335.30496516196257,-150.31323377634092C277.6224234338234,-81.39868777032332,162.25733997754514,56.430404241711834,73.89898950813166,164.3994575406314C-14.459360961281808,272.368510839551,-75.81097844383045,350.477525425355,-106.48678718510479,389.53203271825697L-137.1625959263791,428.58654001115906"></path><path class="link" d="M410.82505096112493,-183.6376255095592L361.58599453130495,-133.40944199735648C312.3469381014849,-83.18125848515372,213.8688252418449,17.275108539251743,210.89590123000767,11.343416160451861C207.92297721817047,5.411723781651982,300.4552420541361,-106.90802800035324,346.7213744721189,-163.06790389135585L392.9875068901017,-219.22777978235848"></path><path class="link" d="M410.82505096112493,-183.6376255095592L356.64846650945236,-137.63594429790183C302.4718820577798,-91.63426308624442,194.11871315443463,0.36909933707033815,151.64556496777695,-39.37461144609235C109.17241678111922,-79.11832222925504,132.57928931114895,-250.60910621889516,144.28272557616384,-336.35449821371526L155.9861618411787,-422.0998902085353"></path><path class="link" d="M410.82505096112493,-183.6376255095592L345.4215530805647,-123.91727245821494C280.01805520000454,-64.19691940687068,149.21105943888406,55.243786695817846,16.92260382112529,125.24945063015014C-115.36585179663352,195.25511456448248,-249.13576727103066,215.82573633045854,-316.02072500822925,226.1110472134466L-382.90568274542784,236.39635809643465"></path><path class="link" d="M410.82505096112493,-183.6376255095592L347.6232971157994,-121.45743433537041C284.4215432704738,-59.27724316118158,158.01803557982274,65.08313918719604,43.343532243941276,154.76750810428476C-71.33097109194019,244.45187702137355,-174.27647007305202,299.46023250717343,-225.749219563608,326.9644102500733L-277.2219690541639,354.46858799297326"></path><path class="link" d="M410.82505096112493,-183.6376255095592L346.993231449265,-121.9967677786068C283.16141193740515,-60.35591004765439,155.4977729136854,62.92580541425042,35.78274424552925,148.29550678544788C-83.93228442262689,233.66520815664535,-195.69870273521943,281.12289543713547,-251.58191189151572,304.8517390773805L-307.465121047812,328.5805827176256"></path><path class="link" d="M410.82505096112493,-183.6376255095592L346.4132976879144,-122.5896759836304C282.00154441470386,-61.54172645770159,153.17803786828281,60.55417259415602,28.823539109321512,141.18060832516468C-95.5309596496398,221.80704405617334,-215.4164506211414,260.9640164663331,-275.35919610689217,280.54250267141293L-335.30194159264295,300.1209888764928"></path><path class="link" d="M410.82505096112493,-183.6376255095592L354.2273182850279,-138.18051054217662C297.6295856089308,-92.723395574794,184.43412025673675,-1.8091656400288134,122.59178627468327,-45.90940637738981C60.749452292629805,-90.0096471147508,50.26024968071696,-269.12435852423795,45.01564837476055,-358.68171422898155L39.77104706880412,-448.23906993372515"></path><path class="link" d="M410.82505096112493,-183.6376255095592L355.0493971329843,-138.07073953106206C299.27374330484383,-92.5038535525649,187.72243564856277,-1.3700815955705916,132.4567324501613,-44.59215424401514C77.19102925175987,-87.81422689245967,78.21093051123808,-265.39214414634307,78.72088114097718,-354.18110277328475L79.23083177071628,-442.9700614002265"></path><path class="link" d="M410.82505096112493,-183.6376255095592L345.0175039807752,-124.64157048534044C279.2099570004255,-65.64551546112169,147.59486303972608,52.34659458731583,12.074014623651275,116.55787430464413C-123.44683379242353,180.7691540219724,-262.87343666387375,191.19960340819148,-332.5867380995988,196.41482810130105L-402.3000395353239,201.63005279441057"></path><path class="link" d="M410.82505096112493,-183.6376255095592L345.8880345997333,-123.23151863984221C280.95101823834165,-62.825411770125214,151.07698551555833,57.98680196930877,22.5203820511481,133.47849645062297C-106.03622141326217,208.97019093193714,-233.2753956192994,239.14136615513152,-296.894982722318,254.22695376672868L-360.5145698253366,269.3125413783259"></path><path class="link" d="M425.4473319911866,-146.61025783205298L373.1438096989586,-103.15206401426288C320.8402874067305,-59.693870196472766,216.23324282227443,27.222517439107452,203.36687294123467,4.158275182512767C190.50050306019492,-18.905967074081918,269.3748078825715,-151.9508392228515,308.81196029375974,-218.4732752972363L348.24911270494806,-284.9957113716211"></path><path class="link" d="M425.4473319911866,-146.61025783205298L372.5906698756028,-103.77004430760287C319.7340077600191,-60.929830783152774,214.02068352885155,24.75059626574743,196.72919506096594,-3.2574883375673003C179.43770659308038,-31.265572940882027,250.56805388847673,-172.96216919641168,286.1332275361749,-243.81046732417653L321.6984011838731,-314.65876545194135"></path><path class="link" d="M425.4473319911866,-146.61025783205298L369.13833155596336,-106.00840107336525C312.82933112074016,-65.40654431467753,200.21133025029368,15.797169202697924,155.30113522529234,-30.1177695267158C110.39094020029103,-76.03270825612952,133.18855102073488,-249.06629923233243,144.5873564309568,-335.58309472043385L155.9861618411787,-422.0998902085353"></path><path class="link" d="M425.4473319911866,-146.61025783205298L356.6258196912698,-98.66073710723714C287.80430739135295,-50.7112163824213,150.16128279151928,45.18782506721038,5.150992848969206,58.054198066821584C-139.85929709358086,70.92057106643279,-292.23685237884735,0.7542756160235152,-368.42563002148063,-34.32887210918113L-444.61440766411386,-69.41201983438576"></path><path class="link" d="M425.4473319911866,-146.61025783205298L356.7898717091554,-99.4737255712182C288.13241142712417,-52.33719331038339,150.81749086306164,41.93587121128619,7.119617063596318,48.29833649904901C-136.57825673586902,54.66080178681182,-286.6590837707372,-26.887332159332136,-361.69949728817136,-67.66139913240411L-436.7399108056054,-108.4354661054761"></path><path class="link" d="M425.4473319911866,-146.61025783205298L358.90316273442545,-90.96213275909383C292.3589934776642,-35.31400768613469,159.27065496414187,75.9822424597836,32.47910936683693,150.43745024454122C-94.312436230468,224.89265802929887,-214.80718891155547,262.50682345289584,-275.05456525209917,281.31390616469434L-335.30194159264295,300.1209888764928"></path><path class="link" d="M425.4473319911866,-146.61025783205298L366.71718333153893,-106.55296731764004C307.9870346718912,-66.4956768032271,190.52673735259577,13.618904225598783,126.24735653219871,-36.652564458013245C61.967975711801614,-86.92403314162527,50.869511390302875,-267.58155153767524,45.3202792295535,-357.9103107357002L39.77104706880412,-448.23906993372515"></path><path class="link" d="M425.4473319911866,-146.61025783205298L367.53926217949544,-106.44319630652548C309.6311923678042,-66.27613478099799,193.8150527444218,14.057988270057004,136.11230270767672,-35.33531232463858C78.40955267093169,-84.72861291933417,78.82019222082398,-263.8493371597803,79.02551199577013,-353.4096992800034L79.23083177071628,-442.9700614002265"></path><path class="link" d="M436.7399108056053,-108.4354661054765L383.7216039817985,-69.17426417303581C330.7032971579918,-29.91306224059515,224.66668351037836,48.609341624286195,217.37461619112776,30.14395601147253C210.08254887187718,11.678570398658868,301.53502788098945,-103.7746046918498,347.2612673855456,-161.50119223710416L392.9875068901017,-219.22777978235848"></path><path class="link" d="M436.7399108056053,-108.4354661054765L378.784075959946,-73.40076647358116C320.8282411142867,-38.36606684168584,204.9165714229681,31.703332422104804,158.12427992889704,-20.574071595071672C111.33198843482592,-72.85147561224814,133.6590751380023,-247.47568291039173,144.8226184895905,-334.78778655946354L155.9861618411787,-422.0998902085353"></path><path class="link" d="M436.7399108056053,-108.4354661054765L366.6708781717717,-67.66139913240444C296.6018455379381,-26.887332159332413,156.463780270271,54.66080178681167,12.765906470805684,48.29833649904896C-130.93196732865962,41.93587121128624,-278.18964965992313,-52.33719331038327,-351.8184908255549,-99.47372557121803L-425.4473319911866,-146.61025783205278"></path><path class="link" d="M436.7399108056053,-108.4354661054765L368.54890713840797,-58.35449815930974C300.3579034712108,-8.273530213143005,163.97589613681632,91.88840567919048,35.3022540704416,159.98114817618537C-93.3713879959331,228.07389067318024,-214.33666479428803,264.0974397748365,-274.8193031934655,282.10921432566465L-335.30194159264295,300.1209888764928"></path><path class="link" d="M436.7399108056053,-108.4354661054765L376.3629277355215,-73.94533271785595C315.9859446654378,-39.45519933023542,195.23197852527025,29.52506744500565,129.07050123580336,-27.108866526369127C62.909023946336504,-83.7428004977439,51.34003550757031,-265.9909352157345,45.55554128818722,-357.1150025747298L39.77104706880412,-448.23906993372515"></path><path class="link" d="M436.7399108056053,-108.4354661054765L377.185006583478,-73.83556170674139C317.6301023613508,-39.23565730800631,198.5202939170962,29.964151489463873,138.9354474112814,-25.79161439299446C79.35060090546658,-81.5473802754528,79.29071633809143,-262.25872083783963,79.26077405440385,-352.6143911190331L79.23083177071628,-442.9700614002265"></path><path class="link" d="M444.6144076641138,-69.41201983438607L389.51568683625055,-37.21190239125572C334.4169660083873,-5.011784948125372,224.21952435266076,59.38844993813533,208.15864185946648,23.457834681929494C192.0977593662722,-12.472780574276348,270.1734360356101,-148.73424597294874,309.2112743702791,-216.8649786722849L348.24911270494806,-284.9957113716211"></path><path class="link" d="M444.6144076641138,-69.41201983438607L387.70364906295634,-38.90749380052629C330.7928904617988,-8.402967766666512,216.97137325948378,52.606084301053045,186.41418857993554,3.110737770682666C155.8570039003873,-46.38460875968772,208.56415174360578,-206.38435388814807,234.91772566521504,-286.3842264523782L261.2712995868243,-366.3840990166084"></path><path class="link" d="M444.6144076641138,-69.41201983438607L385.5102086932554,-40.0682394503581C326.4060097223969,-10.724459066330132,208.19761178067998,47.963101701725805,160.09290414352415,-10.818210027299065C111.98819650636828,-69.59952175632394,133.98717917377348,-245.84970598242964,144.98667050747608,-333.97479809548247L155.98616184117867,-422.0998902085353"></path><path class="link" d="M444.6144076641138,-69.41201983438607L373.701641759874,-35.10027560246276C302.7888758556342,-0.78853137053945,160.96334404715466,67.83495709330718,18.39010094294821,48.79735614744502C-124.18314216125827,29.759755201582863,-267.50409656119166,-76.93893515398807,-339.16457376115835,-130.28828033177354L-410.82505096112504,-183.637625509559"></path><path class="link" d="M444.6144076641138,-69.41201983438607L376.4850392996024,-23.88972948782667C308.3556709350909,21.632560858732727,172.0969342060681,112.67714155185153,51.79087141968852,183.3239095230781C-68.5151913666911,253.97067749430462,-172.86858021042747,304.219632743639,-225.04527463229564,329.3441103683062L-277.2219690541638,354.4685879929733"></path><path class="link" d="M444.6144076641138,-69.41201983438607L372.9061387808942,-31.89626945425938C301.1978698976746,5.619480925867312,157.78133213123536,80.6509816861207,8.84406519519022,87.2454299258856C-140.0932017408549,93.83987816565052,-294.55119784650594,31.997273884926955,-371.78019589933143,1.0759717445651702L-449.009193952157,-29.845330395796612"></path><path class="link" d="M444.6144076641138,-69.41201983438607L375.854973633068,-24.429062931063083C307.09553960202226,20.553893972259903,169.57667153993077,110.51980777890589,44.2300834212765,176.85190820424114C-81.1165046973778,243.18400862957643,-194.29081287259487,285.882295673601,-250.87796696020337,307.2314391956133L-307.4651210478119,328.5805827176256"></path><path class="link" d="M444.6144076641138,-69.41201983438607L375.27503987171735,-25.02197113608668C305.935672079321,19.368077562212704,167.2569364945282,108.14817495881148,37.27087828506873,169.73700974395794C-92.71517992439071,231.32584452910442,-214.00856075851678,265.7234167027986,-274.65525117557985,282.9222027896457L-335.3019415926429,300.1209888764928"></path><path class="link" d="M444.6144076641138,-69.41201983438607L383.0890604688309,-40.61280569463289C321.563713273548,-11.813591554879707,198.51301888298212,45.784836724626665,131.03912545043048,-17.353004958596518C63.565232017878884,-80.4908466418197,51.6681395433415,-264.3649582877724,45.71959330607282,-356.3020141107488L39.77104706880412,-448.23906993372515"></path><path class="link" d="M444.6144076641138,-69.41201983438607L383.91113931678734,-40.50303468351833C323.207870969461,-11.594049532650596,201.80133427480814,46.223920769084884,140.90407162590853,-16.035752825221852C80.00680897700896,-78.2954264195286,79.61882037386262,-260.63274390987755,79.42482607228945,-351.801402655052L79.23083177071628,-442.9700614002265"></path><path class="link" d="M449.009193952157,-29.845330395796918L393.26956679062073,-3.4153551624608176C337.52993962908454,23.01462007087528,226.05068530601207,75.87457053754748,209.25733843147728,33.34950704157679C192.46399155694246,-9.175556454393908,270.35655213094526,-147.0856339130075,309.3028324179466,-216.04067264231432L348.24911270494806,-284.9957113716211"></path><path class="link" d="M449.009193952157,-29.845330395796918L391.4575290173265,-5.1109465717313896C333.90586408249607,19.62343725233414,218.8025342128351,69.0922049004652,187.51288515194634,13.002410130329954C156.22323609105754,-43.08738463980529,208.74726783894093,-204.73574182820684,235.0092837128826,-285.55992042240763L261.2712995868243,-366.3840990166084"></path><path class="link" d="M449.009193952157,-29.845330395796918L380.2389192539726,9.906817740968231C311.4686445557882,49.65896587773338,173.92809515941943,129.1632621512637,52.889567991699316,193.2155818827254C-68.14895917602082,257.2679016141871,-172.68546411509234,305.8682448035802,-224.95371658462807,330.16841639827675L-277.2219690541638,354.4685879929733"></path><path class="link" d="M449.009193952157,-29.845330395796918L376.6600187352644,1.9002777745355246C304.3108435183718,33.64588594486796,159.61249308458667,97.13710228553286,9.942761767201015,97.13710228553289C-139.72696955018463,97.13710228553295,-294.3680817511708,33.645885944868176,-371.68863785166394,1.9002777745357797L-449.009193952157,-29.845330395796612"></path><path class="link" d="M449.009193952157,-29.845330395796918L379.60885358743826,9.36748429773182C310.20851322271955,48.580298991260555,171.4078324932821,127.00592837831805,45.32877999328729,186.74358056388846C-80.75027250670753,246.48123274945888,-194.10769677725975,287.5309077335422,-250.7864089125358,308.0557452255839L-307.4651210478119,328.5805827176256"></path><path class="link" d="M449.88987450835936,9.954939218934049L383.516913212666,27.724371407686167C317.1439519169726,45.49380359643828,184.39802932558587,81.03266797394252,83.41868993399615,9.02352973603096C-17.56064945759353,-62.9856085018806,-86.77340564938616,-242.54274935520797,-121.37978374528245,-332.32131978187164L-155.98616184117878,-422.0998902085353"></path><path class="link" d="M449.88987450835936,9.954939218934049L384.306822255422,27.47157304671265C318.72377000248457,44.98820687449125,187.55766549660981,80.02147453004845,92.89759844706806,5.989949404348721C-1.7624686024736889,-68.04157572135101,-59.916498195682415,-251.13789362830767,-88.9935129922868,-342.686052581786L-118.07052778889116,-434.2342115352643"></path><path class="link" d="M447.24955681329783,49.67729793687132L379.0682014784333,62.814631795756064C310.8868461435688,75.9519656546408,174.52413547383972,102.22663337241029,56.43732607381937,32.883067213497036C-61.649483326201,-36.46049894541625,-161.4603914565127,-201.4222989810123,-211.36584552166855,-283.9031989988103L-261.2712995868244,-366.38409901660833"></path><path class="link" d="M447.24955681329783,49.67729793687132L379.7641070216809,62.36343474122682C312.27865723006397,75.04957154558231,177.30775764683014,100.4218451542933,64.78819259279051,27.46870255914602C-47.731372461249116,-45.484440036001274,-137.7996029860945,-216.76299883500687,-182.83371824851716,-302.40227823450965L-227.86783351093987,-388.0415576340124"></path><path class="link" d="M441.1089049328113,89.01086444348277L375.25202605767646,95.57292889681723C309.3951471825416,102.1349933501517,177.681389432272,115.25912225682062,72.04973982960264,32.64696736011654C-33.58190977306671,-49.96518753658754,-113.13145122813576,-228.31362623666465,-152.90622195567028,-317.48784558670314L-192.6809926832048,-406.66206493674173"></path><path class="link" d="M441.1089049328113,89.01086444348277L369.8935076863191,104.25244981672715C298.67811043982687,119.49403518997151,156.24731594684243,149.97720593646028,7.7475193733140015,136.80121839903552C-140.75227720021445,123.62523086161075,-295.3210758542869,66.79008504027244,-372.60547518132313,38.3725121296033L-449.88987450835936,9.954939218934157"></path><path class="link" d="M431.515977793668,127.6478002504335L366.68724593731116,145.33371103759274C301.85851408095425,163.019621824752,172.20105036824046,198.39144339907045,65.20164977665134,243.4069949799153C-41.79775081493779,288.42254656076017,-126.13908828540228,343.08182814813136,-168.3097570206345,370.411468941817L-210.48042575586675,397.7411097355026"></path><path class="link" d="M431.515977793668,127.6478002504335L365.97206357219943,144.9137378339573C300.4281493507308,162.17967541748112,169.34032090779354,196.71155058452874,56.61946139531063,238.36731653629013C-56.101398117172295,280.02308248805156,-150.4552886992009,328.8027392245267,-197.63223399021524,353.1925675927643L-244.80917928122955,377.5823959610019"></path><path class="link" d="M-392.9875068901017,-219.22777978235848L-342.38090721292855,-157.38772701733419C-291.7743075357553,-95.54767425230985,-190.56110818140897,28.1324312777388,-198.58134118852726,79.50553864871232C-206.60157419564553,130.87864601968582,-323.8552395642284,109.94475523158421,-382.48207224851984,99.47780983753341L-441.1089049328113,89.0108644434826"></path><path class="link" d="M-392.9875068901017,-219.22777978235848L-342.50883746043866,-158.20717631955526C-292.03016803077566,-97.18657285675198,-191.0728291714495,24.854634068854523,-200.1165041586489,69.67214702205949C-209.16017914584822,114.48965997526444,-328.204867979573,82.08347895606789,-387.7272123964354,65.8803884464696L-447.24955681329783,49.67729793687132"></path><path class="link" d="M-372.07430274550893,-253.10217943835121L-306.6080712146281,-184.7330505879601C-241.14183968374735,-116.36392173756894,-110.20937662198577,20.37433596321331,21.560649345149603,90.10565236112859C153.33067531228497,159.83696875904386,285.93826418479415,162.56134385409214,352.2420586210487,163.92353140161632L418.5458530573033,165.28571894914046"></path><path class="link" d="M-372.07430274550893,-253.10217943835121L-309.5523187980269,-180.7917408162136C-247.03033485054482,-108.48130219407592,-121.9863669555807,36.13957505019936,-13.77032165563521,137.40136962208675C94.44572364431029,238.66316419397413,185.83384634923718,296.5658760934736,231.52790770170057,325.5172320432234L277.22196905416405,354.4685879929731"></path><path class="link" d="M-372.07430274550893,-253.10217943835121L-310.2275852516297,-180.31020315021297C-248.3808677577504,-107.51822686207474,-124.68743276999191,38.06572571420176,-21.87351909886881,143.17982161409395C80.94039457225428,248.29391751398612,162.87478692674196,312.938156737494,203.84198310398583,345.260276349248L244.80917928122963,377.5823959610019"></path><path class="link" d="M-372.07430274550893,-253.10217943835121L-310.9427676167414,-179.89022994657753C-249.81123248797385,-106.67828045480387,-127.54816223043882,39.745618528743485,-30.45570748020951,148.2195000577191C66.63674727001978,256.6933815866947,138.55858651294332,327.2172456610986,174.51950613440508,362.4791776983006L210.48042575586683,397.7411097355025"></path><path class="link" d="M-372.07430274550893,-253.10217943835121L-311.69226862167494,-179.53510806504644C-251.31023449784098,-105.96803669174166,-130.54616625017303,41.16610605486789,-39.44971953941219,152.4809626360923C51.64672717134864,263.7958192173167,113.07555234520235,339.291389633156,143.7899649321292,377.03917484107563L174.50437751905608,414.78696004899524"></path><path class="link" d="M-348.2491127049482,-284.99571137162104L-292.1195392452101,-206.49000867550265C-235.989965785472,-127.9843059793843,-123.7308188659958,29.027099412852447,-42.828867427441274,147.9574746433158C38.07308401111326,266.8878498737792,87.61783996874614,347.73719494246916,112.39021794756258,388.16186747681417L137.16259592637903,428.5865400111592"></path><path class="link" d="M-348.2491127049482,-284.99571137162104L-292.91985726349594,-206.27239806743037C-237.59060182204374,-127.54908476323976,-126.9320909391393,29.897541845141518,-52.432683646871716,150.56880194018302C22.066723645395843,271.2400620352245,60.407027347026535,355.1359556169263,79.57717919784189,397.0839024077772L98.74733104865723,439.03184919862804"></path><path class="link" d="M-348.2491127049482,-284.99571137162104L-293.7362759432826,-206.12637119855313C-239.22343918161695,-127.25703102548523,-130.1977656582857,30.481649320650565,-62.22970780431094,152.32112436671017C5.738350049663819,274.1605994127698,32.6487922342821,360.10086915875326,46.104013326591236,403.0710040317449L59.559234418900374,446.0411389047366"></path><path class="link" d="M-348.2491127049482,-284.99571137162104L-294.5624057014592,-206.05307092711038C-240.87569869797028,-127.11043048259977,-133.50228469099235,30.774850406421518,-72.14326490243091,153.20072762402305C-10.784245113869465,275.62660484162456,4.560380456275509,362.5930783878064,12.232693241347995,406.0763151608973L19.905006026420484,449.55955193398813"></path><path class="link" d="M-348.2491127049482,-284.99571137162104L-296.2179107107367,-206.12637119855313C-244.18670871652526,-127.25703102548523,-140.12430472810237,30.481649320650565,-92.009325013761,152.32112436671017C-43.89434529941962,274.1605994127698,-51.72678985915976,360.10086915875326,-55.64301213902982,403.0710040317449L-59.559234418899884,446.0411389047366"></path><path class="link" d="M-348.2491127049482,-284.99571137162104L-295.39178095256005,-206.05307092711038C-242.53444920017196,-127.11043048259977,-136.81978569539575,30.774850406421518,-82.09576791564113,153.20072762402305C-27.37175013588649,275.62660484162456,-23.638378081153434,362.5930783878064,-21.771692053786904,406.0763151608973L-19.905006026420374,449.55955193398813"></path><path class="link" d="M-321.69840118387333,-314.6587654519411L-281.67106628834904,-240.54869238561412C-241.64373139282475,-166.43861931928708,-161.58906160177614,-18.21847318663301,-182.95430715585715,35.88381092517954C-204.31955270993816,89.98609503699208,-327.10471360914875,49.97051712796312,-388.49729405875405,29.96272817344864L-449.88987450835936,9.954939218934157"></path><path class="link" d="M-292.6299634987216,-341.8591880624782L-251.48325739425795,-272.4619076186911C-210.3365512897942,-203.064627174904,-128.04313908086672,-64.27006628732978,-111.3849772782806,-75.07054576637371C-94.72681547569447,-85.87102524541763,-143.70390407944964,-246.26654509107968,-168.19244838132724,-326.4643050139107L-192.6809926832048,-406.66206493674173"></path><path class="link" d="M-118.07052778889114,-434.2342115352643L-101.61593041623549,-351.6871948615249C-85.16133304357983,-269.1401781877856,-52.25213829826853,-104.0461448403068,-58.571410640316465,-102.02375795251862C-64.89068298236441,-100.00137106473046,-110.43842241177158,-261.0506306366329,-133.21229212647518,-341.5752604225841L-155.98616184117878,-422.0998902085353"></path></g><g><text class="node module-1" dy="0.31em" transform="rotate(-84.92957746478874)translate(460,0)" style="text-anchor: start;">INDENT</text><text class="node module-1" dy="0.31em" transform="rotate(-79.85915492957747)translate(460,0)" style="text-anchor: start;">DEDENT</text><text class="node module-1" dy="0.31em" transform="rotate(-74.78873239436619)translate(460,0)" style="text-anchor: start;">python_file</text><text class="node module-1" dy="0.31em" transform="rotate(-69.71830985915493)translate(460,0)" style="text-anchor: start;">multi_input</text><text class="node module-1" dy="0.31em" transform="rotate(-64.64788732394366)translate(460,0)" style="text-anchor: start;">multiLine_input</text><text class="node module-1" dy="0.31em" transform="rotate(-59.5774647887324)translate(460,0)" style="text-anchor: start;">single_input</text><text class="node module-1" dy="0.31em" transform="rotate(-54.50704225352113)translate(460,0)" style="text-anchor: start;">assignment_expr</text><text class="node module-1" dy="0.31em" transform="rotate(-49.436619718309856)translate(460,0)" style="text-anchor: start;">mathmatical_expr</text><text class="node module-1" dy="0.31em" transform="rotate(-44.36619718309859)translate(460,0)" style="text-anchor: start;">list_expr</text><text class="node module-1" dy="0.31em" transform="rotate(-39.29577464788732)translate(460,0)" style="text-anchor: start;">variable_expr</text><text class="node module-1" dy="0.31em" transform="rotate(-34.22535211267606)translate(460,0)" style="text-anchor: start;">conditional_expr</text><text class="node module-1" dy="0.31em" transform="rotate(-29.15492957746479)translate(460,0)" style="text-anchor: start;">star_conditional_expr</text><text class="node module-1" dy="0.31em" transform="rotate(-24.08450704225352)translate(460,0)" style="text-anchor: start;">if_expr</text><text class="node module-1" dy="0.31em" transform="rotate(-19.014084507042256)translate(460,0)" style="text-anchor: start;">for_expr</text><text class="node module-1" dy="0.31em" transform="rotate(-13.943661971830991)translate(460,0)" style="text-anchor: start;">while_expr</text><text class="node module-1" dy="0.31em" transform="rotate(-8.873239436619713)translate(460,0)" style="text-anchor: start;">function_def_expr</text><text class="node module-1" dy="0.31em" transform="rotate(-3.8028169014084625)translate(460,0)" style="text-anchor: start;">function_call_expr</text><text class="node module-1" dy="0.31em" transform="rotate(1.267605633802816)translate(460,0)" style="text-anchor: start;">ID</text><text class="node module-1" dy="0.31em" transform="rotate(6.3380281690140805)translate(460,0)" style="text-anchor: start;">INTEGER</text><text class="node module-1" dy="0.31em" transform="rotate(11.40845070422536)translate(460,0)" style="text-anchor: start;">STRING</text><text class="node module-1" dy="0.31em" transform="rotate(16.478873239436624)translate(460,0)" style="text-anchor: start;">BOOL</text><text class="node module-1" dy="0.31em" transform="rotate(21.549295774647874)translate(460,0)" style="text-anchor: start;">ASSIGN</text><text class="node module-1" dy="0.31em" transform="rotate(26.619718309859167)translate(460,0)" style="text-anchor: start;">ADD</text><text class="node module-1" dy="0.31em" transform="rotate(31.690140845070417)translate(460,0)" style="text-anchor: start;">MINUS</text><text class="node module-1" dy="0.31em" transform="rotate(36.76056338028168)translate(460,0)" style="text-anchor: start;">MULTIPLY</text><text class="node module-1" dy="0.31em" transform="rotate(41.83098591549296)translate(460,0)" style="text-anchor: start;">DIVIDE</text><text class="node module-1" dy="0.31em" transform="rotate(46.901408450704224)translate(460,0)" style="text-anchor: start;">MOD</text><text class="node module-1" dy="0.31em" transform="rotate(51.97183098591549)translate(460,0)" style="text-anchor: start;">ADD_ASSIGN</text><text class="node module-1" dy="0.31em" transform="rotate(57.04225352112675)translate(460,0)" style="text-anchor: start;">SUB_ASSIGN</text><text class="node module-1" dy="0.31em" transform="rotate(62.11267605633802)translate(460,0)" style="text-anchor: start;">MUL_ASSIGN</text><text class="node module-1" dy="0.31em" transform="rotate(67.18309859154928)translate(460,0)" style="text-anchor: start;">DIV_ASSIGN</text><text class="node module-1" dy="0.31em" transform="rotate(72.25352112676057)translate(460,0)" style="text-anchor: start;">LESS</text><text class="node module-1" dy="0.31em" transform="rotate(77.32394366197184)translate(460,0)" style="text-anchor: start;">GREATER</text><text class="node module-1" dy="0.31em" transform="rotate(82.39436619718307)translate(460,0)" style="text-anchor: start;">EQLESS</text><text class="node module-1" dy="0.31em" transform="rotate(87.46478873239437)translate(460,0)" style="text-anchor: start;">EQGREATER</text><text class="node module-1" dy="0.31em" transform="rotate(92.53521126760563)translate(460,0)rotate(180)" style="text-anchor: end;">NOTEQ</text><text class="node module-1" dy="0.31em" transform="rotate(97.6056338028169)translate(460,0)rotate(180)" style="text-anchor: end;">EQ</text><text class="node module-1" dy="0.31em" transform="rotate(102.67605633802816)translate(460,0)rotate(180)" style="text-anchor: end;">AND</text><text class="node module-1" dy="0.31em" transform="rotate(107.74647887323945)translate(460,0)rotate(180)" style="text-anchor: end;">OR</text><text class="node module-1" dy="0.31em" transform="rotate(112.81690140845072)translate(460,0)rotate(180)" style="text-anchor: end;">NOT</text><text class="node module-1" dy="0.31em" transform="rotate(117.88732394366198)translate(460,0)rotate(180)" style="text-anchor: end;">TRUE</text><text class="node module-1" dy="0.31em" transform="rotate(122.95774647887325)translate(460,0)rotate(180)" style="text-anchor: end;">FALSE</text><text class="node module-1" dy="0.31em" transform="rotate(128.02816901408448)translate(460,0)rotate(180)" style="text-anchor: end;">OPENPAR</text><text class="node module-1" dy="0.31em" transform="rotate(133.09859154929575)translate(460,0)rotate(180)" style="text-anchor: end;">CLOSEPAR</text><text class="node module-1" dy="0.31em" transform="rotate(138.16901408450707)translate(460,0)rotate(180)" style="text-anchor: end;">COLON</text><text class="node module-1" dy="0.31em" transform="rotate(143.23943661971833)translate(460,0)rotate(180)" style="text-anchor: end;">ELSE</text><text class="node module-1" dy="0.31em" transform="rotate(148.30985915492957)translate(460,0)rotate(180)" style="text-anchor: end;">IF</text><text class="node module-1" dy="0.31em" transform="rotate(153.38028169014083)translate(460,0)rotate(180)" style="text-anchor: end;">ELIF</text><text class="node module-1" dy="0.31em" transform="rotate(158.4507042253521)translate(460,0)rotate(180)" style="text-anchor: end;">OPENBRACKET</text><text class="node module-1" dy="0.31em" transform="rotate(163.52112676056336)translate(460,0)rotate(180)" style="text-anchor: end;">CLOSEBRACKET</text><text class="node module-1" dy="0.31em" transform="rotate(168.59154929577466)translate(460,0)rotate(180)" style="text-anchor: end;">BREAK</text><text class="node module-1" dy="0.31em" transform="rotate(173.66197183098592)translate(460,0)rotate(180)" style="text-anchor: end;">CONTINUE</text><text class="node module-1" dy="0.31em" transform="rotate(178.73239436619718)translate(460,0)rotate(180)" style="text-anchor: end;">NEWLINE</text><text class="node module-1" dy="0.31em" transform="rotate(183.80281690140845)translate(460,0)rotate(180)" style="text-anchor: end;">COMMA</text><text class="node module-1" dy="0.31em" transform="rotate(188.8732394366197)translate(460,0)rotate(180)" style="text-anchor: end;">FOR</text><text class="node module-1" dy="0.31em" transform="rotate(193.94366197183098)translate(460,0)rotate(180)" style="text-anchor: end;">IN</text><text class="node module-1" dy="0.31em" transform="rotate(199.01408450704224)translate(460,0)rotate(180)" style="text-anchor: end;">WHILE</text><text class="node module-1" dy="0.31em" transform="rotate(204.0845070422535)translate(460,0)rotate(180)" style="text-anchor: end;">DEF</text><text class="node module-1" dy="0.31em" transform="rotate(209.15492957746477)translate(460,0)rotate(180)" style="text-anchor: end;">LOOPCONTROL</text><text class="node module-1" dy="0.31em" transform="rotate(214.22535211267603)translate(460,0)rotate(180)" style="text-anchor: end;">ASSIGNS</text><text class="node module-1" dy="0.31em" transform="rotate(219.2957746478873)translate(460,0)rotate(180)" style="text-anchor: end;">CONDITIONAL</text><text class="node module-1" dy="0.31em" transform="rotate(224.36619718309856)translate(460,0)rotate(180)" style="text-anchor: end;">COMMENTS</text><text class="node module-1" dy="0.31em" transform="rotate(229.43661971830988)translate(460,0)rotate(180)" style="text-anchor: end;">WHITESPACE</text><text class="node module-1" dy="0.31em" transform="rotate(234.50704225352115)translate(460,0)rotate(180)" style="text-anchor: end;">NON_ZERO_DIGIT</text><text class="node module-1" dy="0.31em" transform="rotate(239.5774647887324)translate(460,0)rotate(180)" style="text-anchor: end;">DIGIT</text><text class="node module-1" dy="0.31em" transform="rotate(244.64788732394368)translate(460,0)rotate(180)" style="text-anchor: end;">SPACES</text><text class="node module-1" dy="0.31em" transform="rotate(249.71830985915494)translate(460,0)rotate(180)" style="text-anchor: end;">ID_START</text><text class="node module-1" dy="0.31em" transform="rotate(254.78873239436615)translate(460,0)rotate(180)" style="text-anchor: end;">ID_CONTINUE</text><text class="node module-2" dy="0.31em" transform="rotate(264.92957746478874)translate(460,0)rotate(180)" style="text-anchor: end;">EOF</text></g></g></svg>